<svg width="16" height="16" viewBox="0 0 16 16" fill="none" xmlns="http://www.w3.org/2000/svg">
<path d="M9.77928 16H3.65568C2.24138 16 1.09082 14.8785 1.09082 13.5V5.03125C1.09082 3.65271 2.24138 2.53125 3.65568 2.53125H9.77928C11.1936 2.53125 12.3441 3.65271 12.3441 5.03125V13.5C12.3441 14.8785 11.1936 16 9.77928 16ZM3.65568 3.78125C2.94859 3.78125 2.37325 4.34204 2.37325 5.03125V13.5C2.37325 14.1892 2.94859 14.75 3.65568 14.75H9.77928C10.4864 14.75 11.0617 14.1892 11.0617 13.5V5.03125C11.0617 4.34204 10.4864 3.78125 9.77928 3.78125H3.65568ZM14.909 11.9375V2.5C14.909 1.12146 13.7584 0 12.3441 0H5.22666C4.87249 0 4.58544 0.279785 4.58544 0.625C4.58544 0.970215 4.87249 1.25 5.22666 1.25H12.3441C13.0512 1.25 13.6266 1.81079 13.6266 2.5V11.9375C13.6266 12.2827 13.9136 12.5625 14.2678 12.5625C14.622 12.5625 14.909 12.2827 14.909 11.9375Z" fill="#E2AD06"/>
</svg>
