<svg width="20" height="20" viewBox="0 0 20 20" fill="none" xmlns="http://www.w3.org/2000/svg">
<path d="M18.3655 17.0585L11.307 10L18.3655 2.9415C18.7265 2.58054 18.7265 1.99533 18.3655 1.63437C18.0046 1.27341 17.4194 1.27341 17.0584 1.63437L9.99989 8.69288L2.94138 1.63437C2.58042 1.27341 1.99521 1.27341 1.63425 1.63437C1.27328 1.99533 1.27328 2.58054 1.63425 2.9415L8.69276 10L1.63425 17.0585C1.27328 17.4195 1.27328 18.0047 1.63425 18.3657C1.99521 18.7266 2.58042 18.7266 2.94138 18.3657L9.99989 11.3071L17.0584 18.3657C17.4194 18.7266 18.0046 18.7266 18.3655 18.3657C18.7265 18.0047 18.7265 17.4195 18.3655 17.0585Z" fill="white"/>
</svg>
